<svg width="2793"
    height="2598"
    xmlns="http://www.w3.org/2000/svg"
    xmlns:xlink="http://www.w3.org/1999/xlink"
    overflow="hidden">
    <defs>
        <clipPath id="clip0">
            <rect x="538"
                y="0"
                width="2793"
                height="2598"/>
        </clipPath>
    </defs>
    <g clip-path="url(#clip0)"
        transform="translate(-538 0)">
        <path d="M1187.5 1623.75C1008.15 1623.75 862.75 1769.15 862.75 1948.5 862.75 2127.85 1008.15 2273.25 1187.5 2273.25 1366.85 2273.25 1512.25 2127.85 1512.25 1948.5 1512.25 1769.15 1366.85 1623.75 1187.5 1623.75ZM1187.5 1299C1546.21 1299 1837 1589.79 1837 1948.5 1837 2307.21 1546.21 2598 1187.5 2598 828.791 2598 538 2307.21 538 1948.5 538 1589.79 828.791 1299 1187.5 1299Z"
            fill="#0078D7"
            fill-rule="evenodd"/>
        <path d="M2681.5 1623.75C2502.15 1623.75 2356.75 1769.15 2356.75 1948.5 2356.75 2127.85 2502.15 2273.25 2681.5 2273.25 2860.85 2273.25 3006.25 2127.85 3006.25 1948.5 3006.25 1769.15 2860.85 1623.75 2681.5 1623.75ZM2681.5 1299C3040.21 1299 3331 1589.79 3331 1948.5 3331 2307.21 3040.21 2598 2681.5 2598 2322.79 2598 2032 2307.21 2032 1948.5 2032 1589.79 2322.79 1299 2681.5 1299Z"
            fill="#0078D7"
            fill-rule="evenodd"/>
        <path d="M3007 1949 3331 1949 3331 2598C3219.16 2598 3113.94 2569.62 3022.12 2519.67L3007 2510.47 3007 1949Z"
            fill="#0078D7"
            fill-rule="evenodd"/>
        <path d="M1513 1949 1837 1949 1837 2598C1725.16 2598 1619.94 2569.62 1528.12 2519.67L1513 2510.47 1513 1949Z"
            fill="#0078D7"
            fill-rule="evenodd"/>
        <path d="M1837 650 1513 650 1513 6.10352e-05C1624.84 6.10352e-05 1730.06 28.4195 1821.88 78.4514L1837 87.668 1837 650Z"
            fill="#0078D7"
            fill-rule="evenodd"/>
        <rect x="1513"
            y="130"
            width="324"
            height="2338"
            fill="#0078D7"/>
    </g>
</svg>